<svg width="45" height="46" viewBox="0 0 45 46" fill="none" xmlns="http://www.w3.org/2000/svg">
<circle cx="22.5" cy="23" r="22.5" fill="#FB4B04" fill-opacity="0.1"/>
<path d="M31.4837 20.3099C31.4836 19.4874 31.2142 18.6876 30.7168 18.0327C30.2194 17.3777 29.5213 16.9035 28.7291 16.6826C27.9369 16.4617 27.0941 16.5062 26.3295 16.8092C25.565 17.1123 24.9206 17.6573 24.4949 18.361C24.0692 19.0647 23.8855 19.8884 23.972 20.7063C24.0584 21.5242 24.4102 22.2913 24.9735 22.8905C25.5369 23.4896 26.281 23.8879 27.092 24.0245C27.903 24.1611 28.7364 24.0284 29.465 23.6468C29.2132 24.5809 28.8581 25.3632 28.433 25.9873C27.5829 27.2377 26.4692 27.8425 25.2962 27.8425C25.0822 27.8425 24.8769 27.9275 24.7255 28.0789C24.5742 28.2302 24.4892 28.4355 24.4892 28.6495C24.4892 28.8636 24.5742 29.0689 24.7255 29.2202C24.8769 29.3716 25.0822 29.4566 25.2962 29.4566C27.0944 29.4566 28.6719 28.5064 29.7684 26.8955C30.8553 25.2965 31.4837 23.0399 31.4837 20.3099Z" fill="#FB4B04"/>
<path d="M21.7011 20.3099C21.7009 19.4874 21.4316 18.6876 20.9342 18.0327C20.4368 17.3777 19.7386 16.9035 18.9464 16.6826C18.1542 16.4617 17.3115 16.5062 16.5469 16.8092C15.7823 17.1123 15.138 17.6573 14.7123 18.361C14.2866 19.0647 14.1029 19.8884 14.1893 20.7063C14.2757 21.5242 14.6275 22.2913 15.1909 22.8905C15.7543 23.4896 16.4983 23.8879 17.3093 24.0245C18.1203 24.1611 18.9538 24.0284 19.6823 23.6468C19.4305 24.5809 19.0754 25.3632 18.6504 25.9873C17.8003 27.2377 16.6865 27.8425 15.5136 27.8425C15.2995 27.8425 15.0942 27.9275 14.9429 28.0789C14.7915 28.2302 14.7065 28.4355 14.7065 28.6495C14.7065 28.8636 14.7915 29.0689 14.9429 29.2202C15.0942 29.3716 15.2995 29.4566 15.5136 29.4566C17.3117 29.4566 18.8893 28.5064 19.9858 26.8955C21.0726 25.2965 21.7011 23.0399 21.7011 20.3099Z" fill="#FB4B04"/>
</svg>
